<svg width="33" height="32" viewBox="0 0 39 42" fill="none" xmlns="http://www.w3.org/2000/svg">
<path fill-rule="evenodd" clip-rule="evenodd" d="M25.8601 6.5625V9.52L29.0429 12.32V6.5625H25.8601ZM31.43 14.42V6.125C31.43 4.9175 30.5388 3.9375 29.4407 3.9375H25.4623C24.3642 3.9375 23.473 4.9175 23.473 6.125V7.42L22.8253 6.8495C21.7671 5.91826 20.4521 5.4109 19.0967 5.4109C17.7413 5.4109 16.4263 5.91826 15.3681 6.8495L2.43803 18.2245C2.1907 18.4419 2.03205 18.7585 1.99699 19.1046C1.96192 19.4507 2.05331 19.7979 2.25104 20.0699C2.44878 20.3419 2.73667 20.5163 3.05138 20.5549C3.36608 20.5934 3.68183 20.4929 3.92916 20.2755L5.17204 19.18V37.1875H3.1828C2.86625 37.1875 2.56267 37.3258 2.33884 37.5719C2.11501 37.8181 1.98926 38.1519 1.98926 38.5C1.98926 38.8481 2.11501 39.1819 2.33884 39.4281C2.56267 39.6742 2.86625 39.8125 3.1828 39.8125H35.0106C35.3271 39.8125 35.6307 39.6742 35.8546 39.4281C36.0784 39.1819 36.2041 38.8481 36.2041 38.5C36.2041 38.1519 36.0784 37.8181 35.8546 37.5719C35.6307 37.3258 35.3271 37.1875 35.0106 37.1875H33.0214V19.18L34.2658 20.2755C34.5136 20.4878 34.8274 20.5842 35.1393 20.5437C35.4513 20.5032 35.7361 20.3292 35.9321 20.0593C36.1281 19.7894 36.2195 19.4454 36.1864 19.102C36.1533 18.7585 35.9984 18.4432 35.7554 18.2245L31.43 14.42ZM30.6343 17.08L21.3342 8.89875C20.6992 8.33983 19.9101 8.03531 19.0967 8.03531C18.2833 8.03531 17.4942 8.33983 16.8592 8.89875L7.55912 17.08V37.1875H13.129V29.6625C13.129 28.5005 13.129 27.4977 13.2277 26.6945C13.3327 25.8335 13.5698 25.0093 14.1777 24.3408C14.7856 23.6723 15.5368 23.4115 16.3181 23.296C17.0486 23.1875 17.9604 23.1875 19.0187 23.1875H19.1747C20.2329 23.1875 21.1448 23.1875 21.8753 23.296C22.6582 23.4115 23.4078 23.6723 24.0157 24.3408C24.6236 25.0093 24.8607 25.8335 24.9657 26.6945C25.0644 27.4977 25.0644 28.5005 25.0644 29.6642V37.1875H30.6343V17.08ZM22.6773 37.1875V29.75C22.6773 28.476 22.6741 27.65 22.6009 27.0445C22.5309 26.4757 22.4195 26.2973 22.3272 26.1975C22.2365 26.0977 22.0742 25.9735 21.557 25.8965C21.0048 25.816 20.2552 25.8125 19.0967 25.8125C17.9382 25.8125 17.187 25.816 16.6364 25.8965C16.1192 25.9735 15.9569 26.0977 15.8662 26.1975C15.7755 26.2973 15.6625 26.4757 15.5925 27.0445C15.5193 27.6518 15.5161 28.476 15.5161 29.75V37.1875H22.6773ZM19.0967 14.4375C18.8355 14.4375 18.5768 14.4941 18.3354 14.604C18.0941 14.7139 17.8748 14.8751 17.6901 15.0782C17.5054 15.2813 17.3589 15.5225 17.2589 15.7879C17.1589 16.0533 17.1075 16.3377 17.1075 16.625C17.1075 16.9123 17.1589 17.1967 17.2589 17.4621C17.3589 17.7275 17.5054 17.9687 17.6901 18.1718C17.8748 18.3749 18.0941 18.5361 18.3354 18.646C18.5768 18.7559 18.8355 18.8125 19.0967 18.8125C19.6243 18.8125 20.1302 18.582 20.5033 18.1718C20.8764 17.7616 21.0859 17.2052 21.0859 16.625C21.0859 16.0448 20.8764 15.4884 20.5033 15.0782C20.1302 14.668 19.6243 14.4375 19.0967 14.4375ZM14.7204 16.625C14.7204 15.3486 15.1814 14.1246 16.0022 13.222C16.8229 12.3195 17.936 11.8125 19.0967 11.8125C20.2574 11.8125 21.3705 12.3195 22.1912 13.222C23.0119 14.1246 23.473 15.3486 23.473 16.625C23.473 17.9014 23.0119 19.1254 22.1912 20.028C21.3705 20.9305 20.2574 21.4375 19.0967 21.4375C17.936 21.4375 16.8229 20.9305 16.0022 20.028C15.1814 19.1254 14.7204 17.9014 14.7204 16.625Z" fill="black"/>
</svg>
